{
  "accessors": [
    {
      "bufferView": 2,
      "componentType": 5126,
      "count": 1838,
      "max": [
        0.1889902651309967,
        0.18899017572402954,
        -2.384185791015625e-07
      ],
      "min": [
        -0.18899023532867432,
        -0.18899008631706238,
        -0.5810244083404541
      ],
      "type": "VEC3"
    },
    {
      "bufferView": 2,
      "byteOffset": 22056,
      "componentType": 5126,
      "count": 1838,
      "max": [
        1.0,
        1.0,
        0.999813437461853
      ],
      "min": [
        -1.0,
        -1.0,
        -1.0
      ],
      "type": "VEC3"
    },
    {
      "bufferView": 3,
      "componentType": 5126,
      "count": 1838,
      "max": [
        1.0,
        1.0,
        1.0,
        1.0
      ],
      "min": [
        -1.0,
        -1.0,
        -1.0,
        1.0
      ],
      "type": "VEC4"
    },
    {
      "bufferView": 1,
      "componentType": 5126,
      "count": 1838,
      "max": [
        0.9912122488021851,
        0.9997164607048035
      ],
      "min": [
        0.0002835392951965332,
        0.0002835392951965332
      ],
      "type": "VEC2"
    },
    {
      "bufferView": 1,
      "byteOffset": 14704,
      "componentType": 5126,
      "count": 1838,
      "max": [
        0.9912122488021851,
        0.9997164607048035
      ],
      "min": [
        0.0002835392951965332,
        0.0002835392951965332
      ],
      "type": "VEC2"
    },
    {
      "bufferView": 1,
      "byteOffset": 29408,
      "componentType": 5126,
      "count": 1838,
      "max": [
        0.9912122488021851,
        0.9997164607048035
      ],
      "min": [
        0.0002835392951965332,
        0.0002835392951965332
      ],
      "type": "VEC2"
    },
    {
      "bufferView": 0,
      "componentType": 5125,
      "count": 8250,
      "type": "SCALAR"
    }
  ],
  "asset": {
    "extras": {
      "author": "DeepDown (https://sketchfab.com/deepdown)",
      "license": "CC-BY-4.0 (http://creativecommons.org/licenses/by/4.0/)",
      "source": "https://sketchfab.com/3d-models/chinese-japanese-paper-lantern-chochin-20bcc5d20f2847f88aef3a267275d16c",
      "title": "Chinese \\ Japanese paper lantern chochin"
    },
    "generator": "Sketchfab-11.58.0",
    "version": "2.0"
  },
  "bufferViews": [
    {
      "buffer": 0,
      "byteLength": 33000,
      "name": "floatBufferViews",
      "target": 34963
    },
    {
      "buffer": 0,
      "byteLength": 44112,
      "byteOffset": 33000,
      "byteStride": 8,
      "name": "floatBufferViews",
      "target": 34962
    },
    {
      "buffer": 0,
      "byteLength": 44112,
      "byteOffset": 77112,
      "byteStride": 12,
      "name": "floatBufferViews",
      "target": 34962
    },
    {
      "buffer": 0,
      "byteLength": 29408,
      "byteOffset": 121224,
      "byteStride": 16,
      "name": "floatBufferViews",
      "target": 34962
    }
  ],
  "buffers": [
    {
      "byteLength": 150632,
      "uri": "scene.bin"
    }
  ],
  "images": [
    {
      "uri": "textures/Lantern_baseColor.png"
    },
    {
      "uri": "textures/Lantern_metallicRoughness.png"
    },
    {
      "uri": "textures/Lantern_normal.png"
    }
  ],
  "materials": [
    {
      "doubleSided": true,
      "name": "Lantern",
      "normalTexture": {
        "index": 2
      },
      "pbrMetallicRoughness": {
        "baseColorTexture": {
          "index": 0
        },
        "metallicRoughnessTexture": {
          "index": 1
        }
      }
    }
  ],
  "meshes": [
    {
      "name": "LIGHt_Lantern_0",
      "primitives": [
        {
          "attributes": {
            "NORMAL": 1,
            "POSITION": 0,
            "TANGENT": 2,
            "TEXCOORD_0": 3,
            "TEXCOORD_1": 4,
            "TEXCOORD_2": 5
          },
          "indices": 6,
          "material": 0,
          "mode": 4
        }
      ]
    }
  ],
  "nodes": [
    {
      "children": [
        1
      ],
      "matrix": [
        1.0,
        0.0,
        0.0,
        0.0,
        0.0,
        2.220446049250313e-16,
        -1.0,
        0.0,
        0.0,
        1.0,
        2.220446049250313e-16,
        0.0,
        0.0,
        0.0,
        0.0,
        1.0
      ],
      "name": "Sketchfab_model"
    },
    {
      "children": [
        2
      ],
      "matrix": [
        0.009999999776482582,
        0.0,
        0.0,
        0.0,
        0.0,
        0.0,
        0.009999999776482582,
        0.0,
        0.0,
        -0.009999999776482582,
        0.0,
        0.0,
        0.0,
        0.0,
        0.0,
        1.0
      ],
      "name": "paper_lantern.fbx"
    },
    {
      "children": [
        3
      ],
      "name": "RootNode"
    },
    {
      "children": [
        4
      ],
      "matrix": [
        100.0,
        0.0,
        0.0,
        0.0,
        0.0,
        -1.629206793918314e-05,
        -99.99999999999868,
        0.0,
        0.0,
        99.99999999999868,
        -1.629206793918314e-05,
        0.0,
        0.0,
        0.0,
        0.0,
        1.0
      ],
      "name": "LIGHt"
    },
    {
      "mesh": 0,
      "name": "LIGHt_Lantern_0"
    }
  ],
  "samplers": [
    {
      "magFilter": 9729,
      "minFilter": 9987,
      "wrapS": 10497,
      "wrapT": 10497
    }
  ],
  "scene": 0,
  "scenes": [
    {
      "name": "Sketchfab_Scene",
      "nodes": [
        0
      ]
    }
  ],
  "textures": [
    {
      "sampler": 0,
      "source": 0
    },
    {
      "sampler": 0,
      "source": 1
    },
    {
      "sampler": 0,
      "source": 2
    }
  ]
}
