{
  "accessors": [
    {
      "bufferView": 2,
      "componentType": 5126,
      "count": 65532,
      "max": [
        1.157629370689392,
        3.707582712173462,
        1.17572820186615
      ],
      "min": [
        -1.1576660871505737,
        -0.03048047237098217,
        -1.0260385274887085
      ],
      "type": "VEC3"
    },
    {
      "bufferView": 2,
      "byteOffset": 786384,
      "componentType": 5126,
      "count": 65532,
      "max": [
        0.9999833106994629,
        0.9999912977218628,
        0.9999915361404419
      ],
      "min": [
        -0.9999833106994629,
        -0.9999911785125732,
        -0.9999920129776001
      ],
      "type": "VEC3"
    },
    {
      "bufferView": 1,
      "componentType": 5126,
      "count": 65532,
      "max": [
        0.9881000518798828,
        0.995018482208252
      ],
      "min": [
        0.017765207216143608,
        0.003390998113900423
      ],
      "type": "VEC2"
    },
    {
      "bufferView": 0,
      "componentType": 5125,
      "count": 320355,
      "type": "SCALAR"
    },
    {
      "bufferView": 2,
      "byteOffset": 1572768,
      "componentType": 5126,
      "count": 18548,
      "max": [
        1.1476324796676636,
        3.697615623474121,
        1.16574227809906
      ],
      "min": [
        -1.1476682424545288,
        0.039838679134845734,
        -0.9122447371482849
      ],
      "type": "VEC3"
    },
    {
      "bufferView": 2,
      "byteOffset": 1795344,
      "componentType": 5126,
      "count": 18548,
      "max": [
        0.9999034404754639,
        0.9955694675445557,
        0.9975304007530212
      ],
      "min": [
        -0.9999302625656128,
        -0.9999911785125732,
        -0.9999920129776001
      ],
      "type": "VEC3"
    },
    {
      "bufferView": 1,
      "byteOffset": 524256,
      "componentType": 5126,
      "count": 18548,
      "max": [
        0.9754306077957153,
        0.9780290722846985
      ],
      "min": [
        0.017765207216143608,
        0.003390998113900423
      ],
      "type": "VEC2"
    },
    {
      "bufferView": 0,
      "byteOffset": 1281420,
      "componentType": 5125,
      "count": 85941,
      "type": "SCALAR"
    },
    {
      "bufferView": 2,
      "byteOffset": 2017920,
      "componentType": 5126,
      "count": 1664,
      "max": [
        0.28107163310050964,
        1.598048210144043,
        0.5752191543579102
      ],
      "min": [
        -0.46484366059303284,
        -0.2578345835208893,
        -0.2422674000263214
      ],
      "type": "VEC3"
    },
    {
      "bufferView": 2,
      "byteOffset": 2037888,
      "componentType": 5126,
      "count": 1664,
      "max": [
        0.9999780654907227,
        0.9995714426040649,
        0.9993841648101807
      ],
      "min": [
        -0.9989708065986633,
        -0.998475968837738,
        -0.9996602535247803
      ],
      "type": "VEC3"
    },
    {
      "bufferView": 1,
      "byteOffset": 672640,
      "componentType": 5126,
      "count": 1664,
      "max": [
        0.9093021154403687,
        0.4024670720100403
      ],
      "min": [
        0.6299022436141968,
        0.012717070057988167
      ],
      "type": "VEC2"
    },
    {
      "bufferView": 0,
      "byteOffset": 1625184,
      "componentType": 5125,
      "count": 6600,
      "type": "SCALAR"
    },
    {
      "bufferView": 3,
      "componentType": 5126,
      "count": 28,
      "max": [
        10.416666984558105
      ],
      "min": [
        0.0416666679084301
      ],
      "type": "SCALAR"
    },
    {
      "bufferView": 4,
      "componentType": 5126,
      "count": 28,
      "max": [
        0.4224489629268646,
        0.0,
        -0.0,
        0.9997298121452332
      ],
      "min": [
        -0.15590736269950867,
        0.0,
        -0.0,
        0.9063867330551147
      ],
      "type": "VEC4"
    },
    {
      "bufferView": 3,
      "byteOffset": 112,
      "componentType": 5126,
      "count": 1,
      "max": [
        0.7916666865348816
      ],
      "min": [
        0.7916666865348816
      ],
      "type": "SCALAR"
    },
    {
      "bufferView": 4,
      "byteOffset": 448,
      "componentType": 5126,
      "count": 1,
      "max": [
        0.0,
        0.0,
        -0.0,
        1.0
      ],
      "min": [
        0.0,
        0.0,
        -0.0,
        1.0
      ],
      "type": "VEC4"
    }
  ],
  "animations": [
    {
      "channels": [
        {
          "sampler": 0,
          "target": {
            "node": 6,
            "path": "rotation"
          }
        }
      ],
      "name": "Action",
      "samplers": [
        {
          "input": 12,
          "interpolation": "LINEAR",
          "output": 13
        }
      ]
    },
    {
      "channels": [
        {
          "sampler": 0,
          "target": {
            "node": 6,
            "path": "rotation"
          }
        }
      ],
      "name": "CubeAction",
      "samplers": [
        {
          "input": 14,
          "interpolation": "LINEAR",
          "output": 15
        }
      ]
    }
  ],
  "asset": {
    "extras": {
      "author": "betalars (https://sketchfab.com/betalars)",
      "license": "CC-BY-4.0 (http://creativecommons.org/licenses/by/4.0/)",
      "source": "https://sketchfab.com/3d-models/lucky-cat-maneki-neko-wip-4215b8d0c6fa49ca9a3d867ddb2111ba",
      "title": "Lucky Cat - Maneki-neko, WIP"
    },
    "generator": "Sketchfab-10.87.0",
    "version": "2.0"
  },
  "bufferViews": [
    {
      "buffer": 0,
      "byteLength": 1651584,
      "name": "floatBufferViews",
      "target": 34963
    },
    {
      "buffer": 0,
      "byteLength": 685952,
      "byteOffset": 1651584,
      "byteStride": 8,
      "name": "floatBufferViews",
      "target": 34962
    },
    {
      "buffer": 0,
      "byteLength": 2057856,
      "byteOffset": 2337536,
      "byteStride": 12,
      "name": "floatBufferViews",
      "target": 34962
    },
    {
      "buffer": 0,
      "byteLength": 116,
      "byteOffset": 4395392,
      "name": "floatBufferViews"
    },
    {
      "buffer": 0,
      "byteLength": 464,
      "byteOffset": 4395508,
      "byteStride": 16,
      "name": "floatBufferViews"
    }
  ],
  "buffers": [
    {
      "byteLength": 4395972,
      "uri": "scene.bin"
    }
  ],
  "extensionsUsed": [
    "KHR_materials_clearcoat"
  ],
  "images": [
    {
      "uri": "textures/white_baseColor.png"
    }
  ],
  "materials": [
    {
      "doubleSided": true,
      "extensions": {
        "KHR_materials_clearcoat": {
          "clearcoatFactor": 0.555005806565371,
          "clearcoatRoughnessFactor": 0.04
        }
      },
      "name": "white",
      "pbrMetallicRoughness": {
        "baseColorTexture": {
          "index": 0
        },
        "metallicFactor": 0.0,
        "roughnessFactor": 0.2509971483987864
      }
    }
  ],
  "meshes": [
    {
      "name": "Object_0",
      "primitives": [
        {
          "attributes": {
            "NORMAL": 1,
            "POSITION": 0,
            "TEXCOORD_0": 2
          },
          "indices": 3,
          "material": 0,
          "mode": 4
        }
      ]
    },
    {
      "name": "Object_1",
      "primitives": [
        {
          "attributes": {
            "NORMAL": 5,
            "POSITION": 4,
            "TEXCOORD_0": 6
          },
          "indices": 7,
          "material": 0,
          "mode": 4
        }
      ]
    },
    {
      "name": "Object_2",
      "primitives": [
        {
          "attributes": {
            "NORMAL": 9,
            "POSITION": 8,
            "TEXCOORD_0": 10
          },
          "indices": 11,
          "material": 0,
          "mode": 4
        }
      ]
    }
  ],
  "nodes": [
    {
      "children": [
        1
      ],
      "matrix": [
        1.0,
        0.0,
        0.0,
        0.0,
        0.0,
        2.220446049250313e-16,
        -1.0,
        0.0,
        0.0,
        1.0,
        2.220446049250313e-16,
        0.0,
        0.0,
        0.0,
        0.0,
        1.0
      ],
      "name": "Sketchfab_model"
    },
    {
      "children": [
        2
      ],
      "name": "root"
    },
    {
      "children": [
        3,
        6
      ],
      "matrix": [
        1.0,
        0.0,
        0.0,
        0.0,
        0.0,
        2.220446049250313e-16,
        1.0,
        0.0,
        0.0,
        -1.0,
        2.220446049250313e-16,
        0.0,
        0.0,
        0.0,
        0.0,
        1.0
      ],
      "name": "GLTF_SceneRootNode"
    },
    {
      "children": [
        4,
        5
      ],
      "matrix": [
        -0.9675295948982239,
        -0.0,
        -0.0,
        -0.0,
        0.0,
        0.8961292368070792,
        0.040711719723899656,
        0.0,
        0.0,
        -0.040711719723899656,
        0.8961292368070792,
        0.0,
        0.0,
        0.0,
        0.0,
        1.0
      ],
      "name": "Cube.002_0"
    },
    {
      "mesh": 0,
      "name": "Object_4"
    },
    {
      "mesh": 1,
      "name": "Object_5"
    },
    {
      "children": [
        7
      ],
      "name": "Cube_1",
      "rotation": [
        -0.15590736269950867,
        0.0,
        0.0,
        0.9877716898918152
      ],
      "scale": [
        0.9104705452919006,
        0.9104706048965454,
        0.9104706048965454
      ],
      "translation": [
        0.9545398950576782,
        1.457731008529663,
        -0.005869466811418533
      ]
    },
    {
      "mesh": 2,
      "name": "Object_7"
    }
  ],
  "samplers": [
    {
      "magFilter": 9729,
      "minFilter": 9987,
      "wrapS": 10497,
      "wrapT": 10497
    }
  ],
  "scene": 0,
  "scenes": [
    {
      "name": "Sketchfab_Scene",
      "nodes": [
        0
      ]
    }
  ],
  "textures": [
    {
      "sampler": 0,
      "source": 0
    }
  ]
}
